<svg xmlns="http://www.w3.org/2000/svg" width="236.204" height="81.948" viewBox="0 0 236.204 81.948">
  <g id="Grupo_144" data-name="Grupo 144" transform="translate(-676.078 -41.612)">
    <g id="Grupo_142" data-name="Grupo 142" transform="translate(676.078 95.731)">
      <path id="Caminho_90" data-name="Caminho 90" d="M683.366,67.737l-7.288,27.715,228.537.113,7.166-27.686Z" transform="translate(-676.078 -67.737)" fill="#d70010"/>
      <g id="Grupo_141" data-name="Grupo 141" transform="translate(13.583 7.229)">
        <path id="Caminho_91" data-name="Caminho 91" d="M694.607,71.453l-2.627,0-1.885,7.265a2.734,2.734,0,0,1-3.031,2.1c-1.2,0-2.014-.663-1.612-2.2l1.856-7.163-2.625,0-1.891,7.312a3.178,3.178,0,0,0,.263,2.664,4.432,4.432,0,0,0,3.557,1.336c3.1,0,5.367-1.249,6.128-4.147l1.866-7.176Z" transform="translate(-682.635 -70.985)" fill="#fff"/>
        <path id="Caminho_92" data-name="Caminho 92" d="M696.487,79.131h-.027l-2.885-7.676-2.705,0-2.862,11.02,2.394,0,2.041-7.856h.035l2.978,7.853,2.56,0,2.871-11.022-2.4,0-2,7.681Z" transform="translate(-676.878 -70.991)" fill="#fff"/>
        <path id="Caminho_93" data-name="Caminho 93" d="M699.183,71.445l-2.574,0L693.752,82.47l2.574,0,2.857-11.022Z" transform="translate(-670.723 -70.994)" fill="#fff"/>
        <path id="Caminho_94" data-name="Caminho 94" d="M700.139,79.789h-.026l-.475-8.342-2.758,0,1.278,11.018,2.449,0,7.041-11.026-2.671,0-4.837,8.347Z" transform="translate(-667.371 -71)" fill="#fff"/>
        <path id="Caminho_95" data-name="Caminho 95" d="M713.213,71.434l-9.04.009L701.3,82.465l9.329-.009.506-1.947-6.808.007.745-2.853,5.986-.006.506-1.953-6,.006.605-2.325,6.509-.007.526-1.945Z" transform="translate(-662.631 -71.005)" fill="#fff"/>
        <path id="Caminho_96" data-name="Caminho 96" d="M706.642,82.459l2.511,0,1.116-4.315,2.664,0c1.885,0,1.839.586,1.452,2.088a6.619,6.619,0,0,0-.3,2.223l2.834,0,.093-.284c-.505-.176-.41-.586.021-2.2.522-2.059.064-2.388-.833-2.79a3.726,3.726,0,0,0,2.577-2.635c.246-.949.207-3.107-3.064-3.105l-6.214.006-2.854,11.023Zm4.112-6.173.775-2.95,3.2,0c1.5,0,1.564.864,1.423,1.44-.28,1.092-1.05,1.51-2.374,1.51l-3.022,0Z" transform="translate(-656.911 -71.009)" fill="#fff" fill-rule="evenodd"/>
        <path id="Caminho_97" data-name="Caminho 97" d="M712.613,79.222c-.375,1.357-.195,3.679,4.282,3.675,1.087,0,4.924-.3,5.8-3.611.526-1.985-.866-2.6-2.455-2.958l-2.819-.667c-.487-.108-1.231-.284-1.007-1.15.259-1,1.51-1.328,2.475-1.33,2.25,0,2.152,1.168,2.1,1.661l2.453,0c.344-1.353-.087-3.561-3.855-3.559-3.975,0-5.282,2.167-5.6,3.4-.63,2.426,1.172,2.821,3.051,3.242l1.257.271c1.224.275,2.082.5,1.868,1.363C719.837,80.734,718.43,81,717.216,81c-2.25,0-2.291-1.168-2.146-1.779l-2.457,0Z" transform="translate(-650.65 -71.168)" fill="#fff"/>
        <path id="Caminho_98" data-name="Caminho 98" d="M723.1,71.421l-2.56,0-2.878,11.022,2.571,0L723.1,71.421Z" transform="translate(-645.107 -71.019)" fill="#fff"/>
        <path id="Caminho_99" data-name="Caminho 99" d="M719.878,82.446l5.32-.006c4.056,0,5.993-3.41,6.614-5.773.534-2.09.505-5.253-3.644-5.249l-5.425.006-2.865,11.023Zm4.9-9.123,2.448,0c1.1,0,2.757.255,1.908,3.513-.474,1.813-1.653,3.708-3.733,3.71l-2.5,0,1.881-7.225Z" transform="translate(-642.728 -71.023)" fill="#fff" fill-rule="evenodd"/>
        <path id="Caminho_100" data-name="Caminho 100" d="M729.354,80.169l4.534,0,.195,2.266,2.788,0-1.463-11.018-2.966,0L725.2,82.44l2.7,0,1.45-2.268Zm3.884-6.273h.029l.4,4.361-3.132,0,2.705-4.365Z" transform="translate(-637.02 -71.03)" fill="#fff" fill-rule="evenodd"/>
        <path id="Caminho_101" data-name="Caminho 101" d="M731.448,82.433l5.334,0c4.056,0,5.985-3.41,6.6-5.773.535-2.09.512-5.253-3.644-5.249l-5.421,0-2.871,11.023Zm4.889-9.123,2.471,0c1.1,0,2.751.257,1.906,3.513-.47,1.813-1.661,3.71-3.735,3.712l-2.523,0,1.881-7.225Z" transform="translate(-630.331 -71.035)" fill="#fff" fill-rule="evenodd"/>
        <path id="Caminho_102" data-name="Caminho 102" d="M749.146,71.4l-9.05.009-2.854,11.022,9.318-.009.511-1.947-6.814.007.734-2.853,6-.006.5-1.953-5.98.006.582-2.325,6.536-.007.515-1.945Z" transform="translate(-624.123 -71.044)" fill="#fff"/>
        <path id="Caminho_103" data-name="Caminho 103" d="M748.234,78.445l2.954,0a4.874,4.874,0,0,0,4.831-3.528c.559-2.167-.526-3.524-2.9-3.522l-5.608.006-2.857,11.023,2.565,0,1.017-3.973Zm.5-1.908.831-3.24,2.057,0c1.589,0,2.14.439,1.869,1.52a2.123,2.123,0,0,1-2.378,1.717l-2.378,0Z" transform="translate(-616.182 -71.05)" fill="#fff" fill-rule="evenodd"/>
        <path id="Caminho_104" data-name="Caminho 104" d="M753.064,80.145l4.526,0,.2,2.266,2.8,0-1.471-11.018-2.96,0L748.9,82.418l2.718,0,1.444-2.268Zm3.892-6.273h.035l.387,4.363-3.14,0,2.718-4.365Z" transform="translate(-611.628 -71.056)" fill="#fff" fill-rule="evenodd"/>
        <path id="Caminho_105" data-name="Caminho 105" d="M767.478,71.38l-2.627,0-1.879,7.265a2.723,2.723,0,0,1-3.022,2.1c-1.2,0-2.016-.665-1.626-2.2l1.856-7.163-2.606,0-1.9,7.306a3.117,3.117,0,0,0,.261,2.67c.8,1.1,2.422,1.338,3.544,1.336,3.091,0,5.363-1.249,6.128-4.147l1.866-7.176Z" transform="translate(-604.545 -71.063)" fill="#fff"/>
        <path id="Caminho_106" data-name="Caminho 106" d="M766.384,71.377l-2.568,0L760.942,82.4l8.683-.009.515-1.991-6.122.006,2.366-9.031Z" transform="translate(-598.727 -71.066)" fill="#fff"/>
        <path id="Caminho_107" data-name="Caminho 107" d="M771.156,71.373l-2.574,0L765.707,82.4l2.569,0,2.879-11.022Z" transform="translate(-593.621 -71.071)" fill="#fff"/>
        <path id="Caminho_108" data-name="Caminho 108" d="M768.1,79.165c-.344,1.357-.174,3.681,4.307,3.675,1.071,0,4.916-.3,5.786-3.611.51-1.982-.866-2.6-2.444-2.958l-2.83-.667c-.483-.108-1.228-.284-1-1.148.251-1,1.5-1.33,2.475-1.33,2.241,0,2.148,1.166,2.084,1.661l2.469,0c.333-1.351-.1-3.561-3.853-3.557-3.992,0-5.291,2.165-5.624,3.4-.62,2.426,1.183,2.821,3.074,3.242l1.239.271c1.239.275,2.088.5,1.873,1.363-.3,1.175-1.721,1.433-2.95,1.436-2.245,0-2.283-1.168-2.127-1.777l-2.478,0Z" transform="translate(-591.176 -71.227)" fill="#fff"/>
        <path id="Caminho_109" data-name="Caminho 109" d="M780.182,73.311l3.71,0,.505-1.945-9.995.01-.512,1.945,3.7,0-2.341,9.077,2.561,0,2.369-9.077Z" transform="translate(-584.854 -71.082)" fill="#fff"/>
        <path id="Caminho_110" data-name="Caminho 110" d="M781.2,80.117l4.543,0,.186,2.266,2.8,0-1.463-11.018-2.973,0-7.238,11.027,2.71,0,1.431-2.268Zm3.9-6.273h.033l.389,4.361-3.142,0,2.72-4.365Z" transform="translate(-581.456 -71.086)" fill="#fff" fill-rule="evenodd"/>
      </g>
    </g>
    <g id="Grupo_143" data-name="Grupo 143" transform="translate(701.94 41.612)">
      <path id="Caminho_111" data-name="Caminho 111" d="M786.457,50l-3.211,12.083h13.8a4.133,4.133,0,0,0,2.794-.849,3.534,3.534,0,0,0,1.533-2.21l1.04-3.913a3.6,3.6,0,0,0-.965-3.234A4.356,4.356,0,0,0,797.794,50Zm-16.74-8.338h46.644c2.036,0,3.484.916,5.1,2.554,2.676,2.718,2.585,5.84,1.769,9.017l-2.693,10.548c-.6,2.393-.911,3.919-2.511,5.62-2.1,2.235-4.162,2.894-7.48,2.894h-30.06c-.816,4.445-2.229,6.886-5.525,9.529a13.1,13.1,0,0,1-9.355,3.4h-6.892l11-43.566Z" transform="translate(-613.393 -41.556)" fill="#ffe500"/>
      <path id="Caminho_112" data-name="Caminho 112" d="M767.707,41.664h17.736l-7.609,30.35a17.958,17.958,0,0,1-6.376,10.113c-2.1,1.856-8.7,4.013-14.913,2.7L740.707,62.068l-2.461,9.945a17.963,17.963,0,0,1-6.376,10.113c-2.092,1.856-8.694,4.013-14.909,2.7l11.155-43.162h17.736l16.34,21.08h0l5.514-21.08Z" transform="translate(-658.133 -41.556)" fill="#ffe500"/>
      <path id="Caminho_113" data-name="Caminho 113" d="M747.438,84.826,758.43,41.664h17.742l-7.625,30.348a17.861,17.861,0,0,1-6.372,10.115c-2.09,1.858-8.53,4.013-14.737,2.7Z" transform="translate(-625.477 -41.556)" fill="#ffe500"/>
      <path id="Caminho_114" data-name="Caminho 114" d="M714.5,41.612H695.934l-6.919,26.335c-1.048,4.01-.427,7.524,3.464,11.286,4.327,4.189,11.87,5.893,19.279,5.893h13.471c6.755,0,10.95-1.255,15.286-5.558a16.078,16.078,0,0,0,4.823-8.5l7.6-29.453h-19.05L728.225,62.88c-1.417,6.708-2.591,8.185-11.462,8.185-5.591,0-8.69-4.58-7.758-8.185L714.5,41.612Z" transform="translate(-688.562 -41.612)" fill="#ffe500"/>
    </g>
  </g>
</svg>
