<svg xmlns="http://www.w3.org/2000/svg" version="1.1" xmlns:xlink="http://www.w3.org/1999/xlink" xmlns:svgjs="http://svgjs.dev/svgjs" width="1440" height="560" preserveAspectRatio="none" viewBox="0 0 1440 560"><g mask="url(&quot;#SvgjsMask1014&quot;)" fill="none"><rect width="1440" height="560" x="0" y="0" fill="rgba(14, 25, 71, 1)"></rect><path d="M0 542.82L10 532.22L20 541.1L30 546.32L40 488.07L50 506.34L60 497.67L70 465.38L80 458.79L90 493.58L100 539.47L110 491.63L120 518.99L130 455.31L140 411.42L150 436.7L160 495.72L170 536.18L180 508.87L190 465.07L200 439.22L210 410.63L220 419.25L230 396.26L240 411.52L250 481.17L260 467.42L270 429.33L280 395.81L290 406.45L300 451.79L310 414.62L320 366.49L330 343.19L340 375.74L350 385.79L360 362.59L370 307.89L380 246.34L390 284.2L400 303.78L410 298.63L420 231.08L430 294L440 352.96L450 295.69L460 352.5L470 290.93L480 278.93L490 239.84L500 198.17L510 200.77L520 160.18L530 110.89L540 97.94L550 159.26L560 145.93L570 147.56L580 136.96L590 95.5L600 71.29L610 43.51L620 4.59L630 41.28L640 18.21L650 26.96L660 1.12L670 64.85L680 15.44L690 64.19L700 59.94L710 103.38L720 149.55L730 128.81L740 149.1L750 127.57L760 149.92L770 101.61L780 61.14L790 16.58L800 72.8L810 105.99L820 108.64L830 69.15L840 3.3L850 40.22L860 31.61L870 87.21L880 18.41L890 4.3L900 24.69L910 21.5L920 50.04L930 109.58L940 132.49L950 116.92L960 122.74L970 122.47L980 170.74L990 234.52L1000 266.38L1010 226.46L1020 180.49L1030 130.12L1040 160.19L1050 119.69L1060 152.75L1070 115.08L1080 51.58L1090 11.66L1100 63.32L1110 112.13L1120 142.56L1130 103.78L1140 134.93L1150 71.74L1160 123.9L1170 156.37L1180 136.37L1190 191.01L1200 236.82L1210 292.98L1220 296.38L1230 274.14L1240 308.47L1250 266.55L1260 288.47L1270 288.81L1280 295.25L1290 333.09L1300 356.23L1310 350.18L1320 301.85L1330 266.03L1340 278.22L1350 319.82L1360 282.96L1370 292.87L1380 235.02L1390 234.26L1400 264.79L1410 236.12L1420 278.57L1430 287.01L1440 298.9" stroke="rgba(17, 40, 137, 1)" stroke-width="2"></path><path d="M0 542.82L10 532.22L20 541.1L30 546.32L40 488.07L50 506.34L60 497.67L70 465.38L80 458.79L90 493.58L100 539.47L110 491.63L120 518.99L130 455.31L140 411.42L150 436.7L160 495.72L170 536.18L180 508.87L190 465.07L200 439.22L210 410.63L220 419.25L230 396.26L240 411.52L250 481.17L260 467.42L270 429.33L280 395.81L290 406.45L300 451.79L310 414.62L320 366.49L330 343.19L340 375.74L350 385.79L360 362.59L370 307.89L380 246.34L390 284.2L400 303.78L410 298.63L420 231.08L430 294L440 352.96L450 295.69L460 352.5L470 290.93L480 278.93L490 239.84L500 198.17L510 200.77L520 160.18L530 110.89L540 97.94L550 159.26L560 145.93L570 147.56L580 136.96L590 95.5L600 71.29L610 43.51L620 4.59L630 41.28L640 18.21L650 26.96L660 1.12L670 64.85L680 15.44L690 64.19L700 59.94L710 103.38L720 149.55L730 128.81L740 149.1L750 127.57L760 149.92L770 101.61L780 61.14L790 16.58L800 72.8L810 105.99L820 108.64L830 69.15L840 3.3L850 40.22L860 31.61L870 87.21L880 18.41L890 4.3L900 24.69L910 21.5L920 50.04L930 109.58L940 132.49L950 116.92L960 122.74L970 122.47L980 170.74L990 234.52L1000 266.38L1010 226.46L1020 180.49L1030 130.12L1040 160.19L1050 119.69L1060 152.75L1070 115.08L1080 51.58L1090 11.66L1100 63.32L1110 112.13L1120 142.56L1130 103.78L1140 134.93L1150 71.74L1160 123.9L1170 156.37L1180 136.37L1190 191.01L1200 236.82L1210 292.98L1220 296.38L1230 274.14L1240 308.47L1250 266.55L1260 288.47L1270 288.81L1280 295.25L1290 333.09L1300 356.23L1310 350.18L1320 301.85L1330 266.03L1340 278.22L1350 319.82L1360 282.96L1370 292.87L1380 235.02L1390 234.26L1400 264.79L1410 236.12L1420 278.57L1430 287.01L1440 298.9L1440 560L0 560z" fill="url(&quot;#SvgjsLinearGradient1015&quot;)"></path></g><defs><mask id="SvgjsMask1014"><rect width="1440" height="560" fill="#ffffff"></rect></mask><linearGradient x1="50%" y1="0%" x2="50%" y2="100%" id="SvgjsLinearGradient1015"><stop stop-opacity="0.65" stop-color="rgba(17, 40, 137, 1)" offset="0"></stop><stop stop-opacity="0" stop-color="#3b5ce7" offset="0.8"></stop></linearGradient></defs></svg>